<svg xmlns="http://www.w3.org/2000/svg" viewBox="0 0 1024 1024">
<g fill="#151A3B" fill-rule="evenodd">
  <path d="M 336.00 383.00 L 335.00 384.00 L 335.00 391.00 L 336.00 392.00 L 336.00 397.00 L 335.00 398.00 L 335.00 491.00 L 336.00 492.00 L 336.00 503.00 L 335.00 504.00 L 335.00 506.00 L 378.00 549.00 L 499.00 549.00 L 499.00 424.00 L 418.00 424.00 L 418.00 471.00 L 450.00 471.00 L 451.00 472.00 L 451.00 501.00 L 450.00 502.00 L 400.00 502.00 L 383.00 485.00 L 383.00 395.00 L 391.00 387.00 L 391.00 386.00 L 400.00 378.00 L 490.00 378.00 L 491.00 377.00 L 498.00 377.00 L 499.00 378.00 L 499.00 363.00 L 495.00 357.00 L 487.00 348.00 L 476.00 331.00 L 475.00 330.00 L 378.00 330.00 L 335.00 373.00 L 336.00 383.00 Z M 472.00 345.00 L 480.00 357.00 L 488.00 366.00 L 487.00 367.00 L 395.00 367.00 L 372.00 390.00 L 372.00 392.00 L 373.00 393.00 L 372.00 395.00 L 372.00 489.00 L 374.00 492.00 L 377.00 494.00 L 378.00 496.00 L 380.00 497.00 L 381.00 499.00 L 393.00 510.00 L 393.00 511.00 L 395.00 512.00 L 462.00 512.00 L 462.00 461.00 L 430.00 461.00 L 429.00 460.00 L 429.00 435.00 L 430.00 434.00 L 487.00 434.00 L 489.00 436.00 L 489.00 443.00 L 488.00 444.00 L 489.00 446.00 L 489.00 513.00 L 488.00 514.00 L 488.00 519.00 L 489.00 520.00 L 489.00 527.00 L 488.00 528.00 L 488.00 530.00 L 489.00 531.00 L 489.00 536.00 L 487.00 539.00 L 486.00 538.00 L 484.00 539.00 L 483.00 538.00 L 383.00 538.00 L 365.00 520.00 L 364.00 520.00 L 362.00 517.00 L 361.00 517.00 L 346.00 501.00 L 346.00 378.00 L 357.00 367.00 L 357.00 366.00 L 360.00 364.00 L 360.00 363.00 L 362.00 362.00 L 362.00 361.00 L 364.00 360.00 L 365.00 358.00 L 368.00 356.00 L 374.00 350.00 L 374.00 349.00 L 383.00 341.00 L 469.00 341.00 L 472.00 345.00 Z"/>
  <path d="M 177.00 617.00 L 170.00 621.00 L 166.00 625.00 L 161.00 635.00 L 161.00 638.00 L 160.00 639.00 L 160.00 649.00 L 161.00 650.00 L 161.00 654.00 L 165.00 662.00 L 173.00 669.00 L 183.00 673.00 L 193.00 673.00 L 194.00 672.00 L 195.00 673.00 L 196.00 672.00 L 199.00 672.00 L 207.00 669.00 L 210.00 667.00 L 210.00 644.00 L 190.00 644.00 L 190.00 650.00 L 202.00 650.00 L 203.00 651.00 L 203.00 663.00 L 200.00 665.00 L 198.00 665.00 L 197.00 666.00 L 192.00 666.00 L 191.00 667.00 L 183.00 666.00 L 175.00 662.00 L 174.00 660.00 L 172.00 659.00 L 168.00 650.00 L 168.00 639.00 L 171.00 631.00 L 177.00 625.00 L 182.00 622.00 L 193.00 622.00 L 199.00 625.00 L 203.00 629.00 L 209.00 625.00 L 206.00 621.00 L 197.00 616.00 L 194.00 616.00 L 193.00 615.00 L 187.00 615.00 L 186.00 616.00 L 184.00 615.00 L 183.00 616.00 L 177.00 617.00 Z"/>
  <path d="M 440.00 672.00 L 442.00 672.00 L 443.00 673.00 L 450.00 673.00 L 450.00 667.00 L 447.00 667.00 L 444.00 664.00 L 444.00 615.00 L 437.00 615.00 L 437.00 668.00 L 440.00 672.00 Z"/>
  <path d="M 472.00 618.00 L 469.00 619.00 L 461.00 627.00 L 458.00 633.00 L 458.00 636.00 L 457.00 637.00 L 457.00 651.00 L 458.00 652.00 L 459.00 657.00 L 464.00 665.00 L 469.00 669.00 L 478.00 673.00 L 479.00 672.00 L 480.00 673.00 L 491.00 673.00 L 494.00 671.00 L 496.00 671.00 L 500.00 669.00 L 506.00 662.00 L 500.00 658.00 L 500.00 659.00 L 495.00 664.00 L 487.00 667.00 L 483.00 667.00 L 482.00 666.00 L 481.00 667.00 L 475.00 664.00 L 469.00 659.00 L 466.00 654.00 L 465.00 648.00 L 464.00 647.00 L 464.00 641.00 L 465.00 640.00 L 464.00 639.00 L 469.00 629.00 L 473.00 625.00 L 480.00 622.00 L 489.00 622.00 L 490.00 623.00 L 492.00 623.00 L 500.00 630.00 L 503.00 627.00 L 506.00 626.00 L 505.00 624.00 L 498.00 618.00 L 493.00 616.00 L 490.00 616.00 L 489.00 615.00 L 487.00 616.00 L 486.00 615.00 L 483.00 615.00 L 482.00 616.00 L 480.00 615.00 L 472.00 618.00 Z"/>
  <path d="M 323.00 635.00 L 322.00 635.00 L 317.00 640.00 L 314.00 646.00 L 313.00 655.00 L 314.00 656.00 L 314.00 660.00 L 315.00 662.00 L 320.00 669.00 L 328.00 673.00 L 339.00 673.00 L 344.00 671.00 L 348.00 668.00 L 350.00 665.00 L 346.00 662.00 L 339.00 667.00 L 333.00 668.00 L 332.00 667.00 L 329.00 667.00 L 324.00 664.00 L 322.00 661.00 L 321.00 656.00 L 323.00 654.00 L 324.00 655.00 L 327.00 655.00 L 328.00 654.00 L 340.00 654.00 L 341.00 655.00 L 342.00 654.00 L 344.00 654.00 L 345.00 655.00 L 346.00 654.00 L 347.00 655.00 L 348.00 654.00 L 349.00 655.00 L 351.00 655.00 L 352.00 654.00 L 351.00 645.00 L 348.00 639.00 L 340.00 633.00 L 339.00 634.00 L 338.00 633.00 L 334.00 633.00 L 332.00 632.00 L 331.00 633.00 L 326.00 633.00 L 323.00 635.00 Z M 343.00 643.00 L 345.00 648.00 L 342.00 651.00 L 341.00 650.00 L 340.00 651.00 L 339.00 650.00 L 336.00 650.00 L 335.00 651.00 L 328.00 651.00 L 327.00 650.00 L 322.00 650.00 L 321.00 649.00 L 321.00 647.00 L 323.00 643.00 L 326.00 640.00 L 330.00 638.00 L 336.00 638.00 L 337.00 639.00 L 339.00 639.00 L 343.00 643.00 Z"/>
  <path d="M 370.00 646.00 L 370.00 645.00 L 375.00 640.00 L 377.00 640.00 L 378.00 639.00 L 382.00 639.00 L 384.00 640.00 L 384.00 633.00 L 377.00 633.00 L 375.00 634.00 L 370.00 640.00 L 368.00 639.00 L 369.00 638.00 L 368.00 636.00 L 369.00 634.00 L 368.00 633.00 L 362.00 633.00 L 362.00 672.00 L 369.00 672.00 L 369.00 647.00 L 370.00 646.00 Z"/>
  <path d="M 523.00 634.00 L 516.00 640.00 L 513.00 646.00 L 513.00 650.00 L 512.00 651.00 L 513.00 660.00 L 516.00 666.00 L 519.00 668.00 L 520.00 670.00 L 524.00 672.00 L 526.00 672.00 L 527.00 673.00 L 538.00 673.00 L 539.00 672.00 L 541.00 672.00 L 549.00 666.00 L 552.00 660.00 L 552.00 657.00 L 553.00 656.00 L 553.00 654.00 L 552.00 653.00 L 553.00 652.00 L 553.00 650.00 L 552.00 649.00 L 551.00 643.00 L 545.00 636.00 L 539.00 633.00 L 531.00 632.00 L 530.00 633.00 L 523.00 634.00 Z M 533.00 638.00 L 534.00 639.00 L 539.00 640.00 L 543.00 644.00 L 545.00 648.00 L 545.00 653.00 L 546.00 654.00 L 543.00 662.00 L 540.00 665.00 L 536.00 667.00 L 529.00 667.00 L 525.00 665.00 L 521.00 660.00 L 521.00 658.00 L 520.00 657.00 L 520.00 649.00 L 522.00 644.00 L 526.00 640.00 L 530.00 638.00 L 531.00 639.00 L 533.00 638.00 Z"/>
  <path d="M 229.00 635.00 L 223.00 641.00 L 220.00 648.00 L 220.00 658.00 L 222.00 663.00 L 228.00 670.00 L 232.00 671.00 L 235.00 673.00 L 246.00 673.00 L 251.00 671.00 L 257.00 665.00 L 251.00 662.00 L 251.00 663.00 L 246.00 667.00 L 243.00 667.00 L 242.00 668.00 L 236.00 667.00 L 230.00 663.00 L 227.00 656.00 L 230.00 654.00 L 231.00 655.00 L 258.00 655.00 L 258.00 646.00 L 256.00 641.00 L 253.00 637.00 L 249.00 634.00 L 247.00 634.00 L 246.00 633.00 L 233.00 633.00 L 229.00 635.00 Z M 246.00 639.00 L 249.00 642.00 L 251.00 646.00 L 251.00 649.00 L 250.00 650.00 L 248.00 651.00 L 244.00 651.00 L 243.00 650.00 L 228.00 650.00 L 227.00 649.00 L 229.00 644.00 L 233.00 640.00 L 237.00 638.00 L 243.00 638.00 L 244.00 639.00 L 246.00 639.00 Z"/>
  <path d="M 275.00 670.00 L 275.00 648.00 L 279.00 641.00 L 283.00 639.00 L 287.00 639.00 L 288.00 638.00 L 292.00 640.00 L 295.00 643.00 L 295.00 645.00 L 296.00 646.00 L 296.00 673.00 L 297.00 672.00 L 303.00 672.00 L 303.00 642.00 L 301.00 637.00 L 299.00 635.00 L 295.00 633.00 L 284.00 633.00 L 276.00 639.00 L 275.00 638.00 L 275.00 633.00 L 273.00 634.00 L 269.00 633.00 L 268.00 634.00 L 268.00 672.00 L 276.00 672.00 L 275.00 670.00 Z"/>
  <path d="M 395.00 636.00 L 391.00 639.00 L 396.00 644.00 L 402.00 639.00 L 410.00 638.00 L 416.00 643.00 L 416.00 648.00 L 415.00 649.00 L 409.00 649.00 L 408.00 650.00 L 399.00 651.00 L 393.00 654.00 L 390.00 658.00 L 390.00 666.00 L 391.00 668.00 L 395.00 672.00 L 397.00 672.00 L 398.00 673.00 L 406.00 673.00 L 411.00 671.00 L 416.00 666.00 L 419.00 672.00 L 425.00 673.00 L 427.00 671.00 L 427.00 668.00 L 426.00 666.00 L 425.00 667.00 L 423.00 664.00 L 423.00 643.00 L 422.00 642.00 L 422.00 639.00 L 418.00 635.00 L 414.00 633.00 L 401.00 633.00 L 395.00 636.00 Z M 415.00 662.00 L 412.00 666.00 L 408.00 668.00 L 402.00 668.00 L 397.00 664.00 L 397.00 659.00 L 402.00 655.00 L 415.00 653.00 L 416.00 654.00 L 416.00 661.00 L 415.00 662.00 Z"/>
  <path d="M 536.00 356.00 L 533.00 360.00 L 531.00 361.00 L 529.00 364.00 L 519.00 373.00 L 519.00 506.00 L 562.00 549.00 L 654.00 549.00 L 687.00 516.00 L 687.00 473.00 L 638.00 473.00 L 638.00 496.00 L 637.00 498.00 L 632.00 502.00 L 585.00 502.00 L 582.00 500.00 L 567.00 485.00 L 567.00 395.00 L 584.00 378.00 L 633.00 378.00 L 638.00 383.00 L 638.00 406.00 L 687.00 406.00 L 687.00 363.00 L 684.00 361.00 L 682.00 358.00 L 681.00 358.00 L 679.00 355.00 L 678.00 355.00 L 677.00 353.00 L 669.00 345.00 L 668.00 345.00 L 667.00 343.00 L 664.00 341.00 L 654.00 330.00 L 653.00 331.00 L 652.00 330.00 L 562.00 330.00 L 539.00 353.00 L 539.00 354.00 L 536.00 356.00 Z M 654.00 345.00 L 654.00 346.00 L 655.00 346.00 L 656.00 348.00 L 674.00 366.00 L 676.00 367.00 L 676.00 395.00 L 675.00 396.00 L 674.00 395.00 L 650.00 395.00 L 649.00 394.00 L 649.00 379.00 L 648.00 377.00 L 637.00 367.00 L 579.00 367.00 L 556.00 390.00 L 556.00 403.00 L 557.00 404.00 L 557.00 408.00 L 556.00 409.00 L 556.00 416.00 L 557.00 417.00 L 557.00 428.00 L 556.00 429.00 L 556.00 431.00 L 557.00 432.00 L 557.00 439.00 L 556.00 440.00 L 556.00 487.00 L 557.00 488.00 L 556.00 489.00 L 557.00 491.00 L 580.00 513.00 L 582.00 512.00 L 638.00 512.00 L 649.00 502.00 L 649.00 485.00 L 651.00 483.00 L 655.00 483.00 L 656.00 484.00 L 675.00 484.00 L 676.00 485.00 L 676.00 511.00 L 650.00 538.00 L 622.00 538.00 L 621.00 539.00 L 617.00 539.00 L 616.00 538.00 L 615.00 539.00 L 612.00 539.00 L 611.00 538.00 L 610.00 539.00 L 608.00 538.00 L 606.00 539.00 L 600.00 539.00 L 599.00 538.00 L 572.00 539.00 L 571.00 538.00 L 566.00 538.00 L 531.00 503.00 L 530.00 501.00 L 530.00 378.00 L 567.00 341.00 L 649.00 341.00 L 654.00 345.00 Z"/>
  <path d="M 722.00 672.00 L 724.00 673.00 L 731.00 673.00 L 732.00 672.00 L 732.00 667.00 L 728.00 667.00 L 726.00 665.00 L 726.00 615.00 L 718.00 615.00 L 718.00 665.00 L 719.00 666.00 L 719.00 669.00 L 722.00 672.00 Z"/>
  <path d="M 744.00 672.00 L 746.00 673.00 L 754.00 673.00 L 754.00 667.00 L 751.00 667.00 L 748.00 665.00 L 748.00 615.00 L 741.00 615.00 L 741.00 668.00 L 744.00 672.00 Z"/>
  <path d="M 606.00 639.00 L 612.00 639.00 L 613.00 640.00 L 613.00 666.00 L 615.00 670.00 L 620.00 673.00 L 628.00 673.00 L 629.00 672.00 L 631.00 672.00 L 630.00 666.00 L 629.00 667.00 L 624.00 667.00 L 620.00 663.00 L 620.00 640.00 L 621.00 639.00 L 630.00 639.00 L 630.00 633.00 L 629.00 634.00 L 622.00 634.00 L 620.00 632.00 L 620.00 621.00 L 614.00 621.00 L 613.00 622.00 L 613.00 633.00 L 612.00 634.00 L 606.00 634.00 L 606.00 639.00 Z"/>
  <path d="M 563.00 647.00 L 563.00 651.00 L 564.00 652.00 L 564.00 659.00 L 563.00 660.00 L 563.00 666.00 L 564.00 667.00 L 563.00 668.00 L 563.00 672.00 L 571.00 672.00 L 571.00 646.00 L 572.00 644.00 L 578.00 639.00 L 586.00 639.00 L 590.00 643.00 L 590.00 645.00 L 591.00 646.00 L 591.00 672.00 L 598.00 672.00 L 598.00 642.00 L 597.00 641.00 L 597.00 639.00 L 594.00 635.00 L 590.00 633.00 L 579.00 633.00 L 572.00 639.00 L 570.00 637.00 L 570.00 633.00 L 569.00 634.00 L 568.00 633.00 L 564.00 633.00 L 563.00 634.00 L 563.00 638.00 L 564.00 639.00 L 564.00 646.00 L 563.00 647.00 Z"/>
  <path d="M 650.00 638.00 L 648.00 640.00 L 647.00 639.00 L 647.00 634.00 L 640.00 634.00 L 640.00 672.00 L 647.00 672.00 L 647.00 648.00 L 649.00 644.00 L 652.00 641.00 L 657.00 639.00 L 661.00 639.00 L 662.00 640.00 L 662.00 633.00 L 655.00 633.00 L 653.00 634.00 L 650.00 638.00 Z"/>
  <path d="M 678.00 634.00 L 670.00 641.00 L 668.00 645.00 L 668.00 649.00 L 667.00 650.00 L 667.00 652.00 L 668.00 653.00 L 667.00 654.00 L 667.00 656.00 L 671.00 666.00 L 673.00 667.00 L 675.00 670.00 L 677.00 670.00 L 679.00 672.00 L 681.00 672.00 L 682.00 673.00 L 693.00 673.00 L 698.00 671.00 L 701.00 669.00 L 703.00 666.00 L 704.00 666.00 L 708.00 656.00 L 708.00 650.00 L 707.00 649.00 L 706.00 643.00 L 700.00 636.00 L 694.00 633.00 L 689.00 633.00 L 688.00 632.00 L 686.00 632.00 L 685.00 633.00 L 678.00 634.00 Z M 694.00 640.00 L 698.00 644.00 L 700.00 648.00 L 700.00 652.00 L 701.00 654.00 L 700.00 655.00 L 699.00 661.00 L 692.00 667.00 L 683.00 667.00 L 677.00 662.00 L 675.00 658.00 L 675.00 656.00 L 674.00 655.00 L 675.00 654.00 L 675.00 648.00 L 677.00 644.00 L 683.00 639.00 L 692.00 639.00 L 694.00 640.00 Z"/>
  <path d="M 808.00 672.00 L 816.00 672.00 L 816.00 646.00 L 818.00 643.00 L 822.00 640.00 L 824.00 640.00 L 825.00 639.00 L 830.00 640.00 L 830.00 633.00 L 823.00 633.00 L 820.00 635.00 L 816.00 640.00 L 815.00 639.00 L 815.00 633.00 L 808.00 633.00 L 808.00 665.00 L 809.00 666.00 L 809.00 671.00 L 808.00 672.00 Z"/>
  <path d="M 841.00 636.00 L 838.00 638.00 L 838.00 640.00 L 837.00 641.00 L 837.00 647.00 L 838.00 649.00 L 842.00 653.00 L 856.00 657.00 L 859.00 660.00 L 860.00 663.00 L 856.00 667.00 L 849.00 668.00 L 848.00 667.00 L 845.00 667.00 L 840.00 662.00 L 835.00 667.00 L 839.00 670.00 L 846.00 673.00 L 856.00 673.00 L 863.00 670.00 L 866.00 666.00 L 866.00 657.00 L 862.00 653.00 L 858.00 651.00 L 854.00 651.00 L 851.00 649.00 L 847.00 648.00 L 844.00 645.00 L 844.00 642.00 L 848.00 638.00 L 855.00 638.00 L 861.00 642.00 L 862.00 642.00 L 866.00 638.00 L 864.00 636.00 L 858.00 633.00 L 852.00 633.00 L 851.00 632.00 L 850.00 633.00 L 845.00 633.00 L 841.00 636.00 Z"/>
  <path d="M 764.00 640.00 L 761.00 645.00 L 761.00 648.00 L 760.00 649.00 L 760.00 657.00 L 761.00 658.00 L 762.00 663.00 L 767.00 669.00 L 775.00 673.00 L 786.00 673.00 L 791.00 671.00 L 797.00 665.00 L 791.00 662.00 L 791.00 663.00 L 786.00 667.00 L 779.00 668.00 L 772.00 665.00 L 768.00 660.00 L 768.00 656.00 L 769.00 655.00 L 798.00 655.00 L 798.00 646.00 L 796.00 641.00 L 793.00 637.00 L 786.00 633.00 L 774.00 633.00 L 769.00 635.00 L 764.00 640.00 Z M 787.00 641.00 L 790.00 643.00 L 790.00 645.00 L 791.00 646.00 L 791.00 649.00 L 790.00 650.00 L 769.00 650.00 L 768.00 649.00 L 769.00 644.00 L 773.00 640.00 L 777.00 638.00 L 783.00 638.00 L 787.00 641.00 Z"/>
</g>
<g fill="#15C6DA" fill-rule="evenodd">
  <path d="M 353.00 431.00 L 354.00 430.00 L 355.00 432.00 L 357.00 433.00 L 357.00 495.00 L 356.00 496.00 L 369.00 509.00 L 370.00 509.00 L 373.00 513.00 L 379.00 517.00 L 380.00 520.00 L 384.00 523.00 L 383.00 524.00 L 386.00 527.00 L 387.00 526.00 L 389.00 529.00 L 478.00 529.00 L 479.00 528.00 L 479.00 445.00 L 478.00 444.00 L 455.00 444.00 L 453.00 443.00 L 451.00 441.00 L 452.00 440.00 L 449.00 438.00 L 447.00 439.00 L 442.00 438.00 L 443.00 439.00 L 442.00 440.00 L 440.00 439.00 L 437.00 442.00 L 438.00 443.00 L 436.00 444.00 L 437.00 445.00 L 437.00 450.00 L 438.00 451.00 L 437.00 453.00 L 439.00 455.00 L 440.00 454.00 L 442.00 457.00 L 444.00 456.00 L 449.00 457.00 L 451.00 454.00 L 452.00 455.00 L 453.00 454.00 L 452.00 453.00 L 454.00 452.00 L 453.00 451.00 L 454.00 450.00 L 457.00 450.00 L 458.00 451.00 L 470.00 451.00 L 471.00 452.00 L 472.00 451.00 L 473.00 452.00 L 473.00 521.00 L 471.00 523.00 L 392.00 523.00 L 391.00 521.00 L 363.00 493.00 L 363.00 491.00 L 362.00 492.00 L 361.00 491.00 L 361.00 433.00 L 362.00 432.00 L 363.00 433.00 L 365.00 430.00 L 368.00 428.00 L 367.00 427.00 L 368.00 425.00 L 369.00 426.00 L 369.00 422.00 L 368.00 423.00 L 367.00 422.00 L 367.00 420.00 L 368.00 419.00 L 366.00 418.00 L 367.00 417.00 L 365.00 415.00 L 363.00 416.00 L 362.00 415.00 L 363.00 414.00 L 363.00 411.00 L 362.00 412.00 L 361.00 411.00 L 361.00 388.00 L 362.00 387.00 L 363.00 388.00 L 362.00 386.00 L 364.00 385.00 L 363.00 384.00 L 364.00 383.00 L 367.00 383.00 L 366.00 382.00 L 387.00 361.00 L 392.00 358.00 L 393.00 356.00 L 449.00 356.00 L 450.00 357.00 L 449.00 358.00 L 452.00 359.00 L 455.00 363.00 L 457.00 362.00 L 462.00 362.00 L 464.00 363.00 L 465.00 362.00 L 464.00 361.00 L 465.00 360.00 L 467.00 361.00 L 468.00 359.00 L 467.00 358.00 L 467.00 356.00 L 469.00 353.00 L 468.00 349.00 L 464.00 345.00 L 462.00 346.00 L 456.00 346.00 L 452.00 349.00 L 449.00 350.00 L 450.00 351.00 L 449.00 352.00 L 389.00 352.00 L 388.00 351.00 L 387.00 354.00 L 385.00 356.00 L 382.00 357.00 L 359.00 380.00 L 360.00 382.00 L 357.00 385.00 L 357.00 414.00 L 356.00 415.00 L 355.00 414.00 L 354.00 415.00 L 355.00 416.00 L 350.00 419.00 L 351.00 421.00 L 351.00 425.00 L 350.00 427.00 L 351.00 426.00 L 353.00 428.00 L 352.00 430.00 L 353.00 431.00 Z M 457.00 349.00 L 459.00 350.00 L 461.00 349.00 L 463.00 352.00 L 463.00 355.00 L 461.00 357.00 L 462.00 358.00 L 461.00 359.00 L 458.00 359.00 L 456.00 355.00 L 454.00 354.00 L 455.00 352.00 L 456.00 353.00 L 457.00 351.00 L 456.00 350.00 L 457.00 349.00 Z M 444.00 442.00 L 446.00 442.00 L 447.00 444.00 L 451.00 447.00 L 445.00 452.00 L 442.00 449.00 L 441.00 450.00 L 440.00 449.00 L 440.00 446.00 L 441.00 445.00 L 442.00 446.00 L 442.00 445.00 L 444.00 444.00 L 443.00 443.00 L 444.00 442.00 Z M 358.00 418.00 L 359.00 419.00 L 361.00 418.00 L 363.00 421.00 L 363.00 424.00 L 358.00 428.00 L 356.00 424.00 L 355.00 425.00 L 354.00 424.00 L 354.00 422.00 L 355.00 421.00 L 356.00 422.00 L 358.00 418.00 Z"/>
  <path d="M 536.00 472.00 L 535.00 474.00 L 538.00 475.00 L 539.00 476.00 L 538.00 477.00 L 539.00 478.00 L 540.00 477.00 L 541.00 478.00 L 541.00 495.00 L 540.00 496.00 L 546.00 502.00 L 547.00 502.00 L 548.00 504.00 L 573.00 529.00 L 604.00 529.00 L 606.00 530.00 L 609.00 534.00 L 611.00 533.00 L 612.00 534.00 L 611.00 535.00 L 616.00 535.00 L 615.00 534.00 L 616.00 533.00 L 618.00 534.00 L 619.00 532.00 L 620.00 533.00 L 621.00 532.00 L 620.00 531.00 L 623.00 529.00 L 644.00 529.00 L 643.00 528.00 L 644.00 527.00 L 646.00 527.00 L 657.00 516.00 L 656.00 515.00 L 662.00 509.00 L 666.00 510.00 L 667.00 508.00 L 668.00 509.00 L 670.00 507.00 L 669.00 506.00 L 671.00 505.00 L 670.00 504.00 L 671.00 503.00 L 671.00 500.00 L 670.00 499.00 L 671.00 497.00 L 669.00 496.00 L 670.00 495.00 L 668.00 493.00 L 667.00 494.00 L 666.00 492.00 L 665.00 493.00 L 660.00 493.00 L 659.00 494.00 L 657.00 494.00 L 653.00 497.00 L 654.00 499.00 L 654.00 504.00 L 653.00 505.00 L 655.00 509.00 L 653.00 511.00 L 652.00 510.00 L 652.00 511.00 L 650.00 512.00 L 650.00 513.00 L 642.00 521.00 L 643.00 522.00 L 642.00 523.00 L 623.00 523.00 L 622.00 521.00 L 620.00 520.00 L 621.00 519.00 L 620.00 518.00 L 619.00 519.00 L 617.00 516.00 L 616.00 517.00 L 611.00 517.00 L 609.00 516.00 L 608.00 518.00 L 604.00 521.00 L 605.00 522.00 L 604.00 523.00 L 576.00 523.00 L 575.00 521.00 L 547.00 493.00 L 547.00 478.00 L 549.00 477.00 L 548.00 476.00 L 552.00 473.00 L 553.00 468.00 L 552.00 469.00 L 551.00 468.00 L 551.00 466.00 L 552.00 465.00 L 550.00 464.00 L 551.00 463.00 L 547.00 459.00 L 547.00 423.00 L 551.00 419.00 L 550.00 418.00 L 552.00 417.00 L 551.00 416.00 L 551.00 411.00 L 552.00 410.00 L 550.00 409.00 L 551.00 408.00 L 550.00 408.00 L 547.00 404.00 L 547.00 388.00 L 546.00 386.00 L 547.00 385.00 L 548.00 386.00 L 565.00 369.00 L 564.00 368.00 L 568.00 364.00 L 569.00 365.00 L 571.00 363.00 L 570.00 362.00 L 576.00 356.00 L 604.00 356.00 L 605.00 357.00 L 604.00 358.00 L 609.00 363.00 L 611.00 362.00 L 613.00 363.00 L 615.00 362.00 L 618.00 363.00 L 619.00 361.00 L 623.00 358.00 L 622.00 357.00 L 623.00 356.00 L 641.00 356.00 L 642.00 357.00 L 641.00 358.00 L 651.00 368.00 L 652.00 367.00 L 653.00 368.00 L 654.00 370.00 L 653.00 371.00 L 655.00 374.00 L 653.00 375.00 L 654.00 377.00 L 653.00 381.00 L 654.00 380.00 L 655.00 381.00 L 654.00 383.00 L 657.00 386.00 L 659.00 385.00 L 663.00 387.00 L 664.00 386.00 L 667.00 387.00 L 668.00 385.00 L 671.00 383.00 L 670.00 382.00 L 672.00 381.00 L 672.00 376.00 L 670.00 374.00 L 671.00 373.00 L 667.00 369.00 L 666.00 370.00 L 664.00 370.00 L 663.00 369.00 L 664.00 368.00 L 661.00 368.00 L 660.00 369.00 L 654.00 363.00 L 655.00 362.00 L 651.00 358.00 L 650.00 359.00 L 645.00 353.00 L 643.00 352.00 L 623.00 352.00 L 622.00 351.00 L 623.00 350.00 L 619.00 346.00 L 617.00 347.00 L 616.00 346.00 L 611.00 346.00 L 609.00 345.00 L 606.00 349.00 L 602.00 350.00 L 603.00 351.00 L 602.00 352.00 L 573.00 352.00 L 572.00 351.00 L 549.00 374.00 L 550.00 375.00 L 541.00 385.00 L 541.00 404.00 L 540.00 405.00 L 539.00 404.00 L 538.00 406.00 L 534.00 409.00 L 535.00 411.00 L 535.00 416.00 L 534.00 417.00 L 536.00 418.00 L 535.00 419.00 L 539.00 423.00 L 540.00 422.00 L 541.00 423.00 L 541.00 459.00 L 540.00 460.00 L 539.00 459.00 L 536.00 462.00 L 537.00 463.00 L 534.00 465.00 L 535.00 467.00 L 535.00 471.00 L 536.00 472.00 Z M 661.00 496.00 L 667.00 499.00 L 666.00 500.00 L 666.00 502.00 L 663.00 505.00 L 659.00 503.00 L 659.00 499.00 L 661.00 496.00 Z M 664.00 373.00 L 666.00 376.00 L 666.00 379.00 L 664.00 381.00 L 665.00 382.00 L 664.00 383.00 L 661.00 383.00 L 660.00 382.00 L 661.00 381.00 L 659.00 381.00 L 658.00 380.00 L 659.00 379.00 L 659.00 376.00 L 664.00 373.00 Z M 612.00 349.00 L 613.00 350.00 L 615.00 349.00 L 617.00 353.00 L 618.00 352.00 L 619.00 353.00 L 619.00 355.00 L 618.00 356.00 L 617.00 355.00 L 617.00 356.00 L 615.00 357.00 L 616.00 358.00 L 615.00 359.00 L 612.00 359.00 L 611.00 358.00 L 612.00 357.00 L 610.00 355.00 L 610.00 352.00 L 612.00 349.00 Z M 612.00 520.00 L 615.00 520.00 L 616.00 521.00 L 615.00 522.00 L 617.00 522.00 L 618.00 523.00 L 617.00 524.00 L 617.00 526.00 L 614.00 529.00 L 612.00 529.00 L 610.00 526.00 L 609.00 527.00 L 608.00 526.00 L 608.00 524.00 L 609.00 523.00 L 610.00 524.00 L 612.00 520.00 Z M 542.00 408.00 L 544.00 408.00 L 547.00 412.00 L 547.00 414.00 L 544.00 417.00 L 542.00 417.00 L 538.00 414.00 L 538.00 412.00 L 540.00 411.00 L 542.00 408.00 Z M 545.00 464.00 L 547.00 467.00 L 547.00 470.00 L 545.00 472.00 L 542.00 472.00 L 540.00 470.00 L 539.00 471.00 L 538.00 470.00 L 538.00 468.00 L 542.00 465.00 L 544.00 465.00 L 545.00 464.00 Z"/>
</g>
</svg>